<?xml version="1.0" standalone="no"?><svg xmlns:xlink="http://www.w3.org/1999/xlink" xmlns="http://www.w3.org/2000/svg" viewBox="0 0 1000 583.3404377895066" preserveAspectRatio="xMaxYMax slice"><g transform="scale(1.291719304228314)"><rect x="0" y="0" width="774.1714285714286" height="451.6" fill="#ffffff"/><path d="M 451.6 0 A 64.51 64.51 0 0 1  516.11 64.51 L 451.6 0 A 64.51 64.51 0 0 0 516.11 64.51" fill="#cde4e3"/><path d="M 580.63 0 A 64.51 64.51 0 0 1  645.14 64.51 L 580.63 0 A 64.51 64.51 0 0 0 645.14 64.51" fill="#4d6e44"/><path d="M 64.51 129.02 A 64.51 64.51 0 0 1  129.02 64.51 L 64.51 129.02 A 64.51 64.51 0 0 0 129.02 64.51" fill="#56a19e"/><rect x="322.5714285714286" y="64.51428571428572" width="64.51428571428572" height="64.51428571428572" fill="#ffffff"/><path d="M 322.57 129.03 A 32.26 32.26 0 0 1  354.83 96.77 L 322.57 129.03 A 32.26 32.26 0 0 0 354.83 96.77" fill="#6c8764"/><rect x="387.0857142857143" y="64.51428571428572" width="64.51428571428572" height="64.51428571428572" fill="#ffffff"/><rect x="516.1142857142858" y="64.51428571428572" width="64.51428571428572" height="64.51428571428572" fill="#ffffff"/><path d="M 516.11 64.51 A 32.26 32.26 0 0 1  548.37 96.77000000000001 L 516.11 64.51 A 32.26 32.26 0 0 0 548.37 96.77000000000001" fill="#c8d2c5"/><path d="M 64.51 129.03 A 64.51 64.51 0 0 1  129.02 193.54000000000002 L 64.51 129.03 A 64.51 64.51 0 0 0 129.02 193.54000000000002" fill="#c9d3c6"/><path d="M 193.54 129.03 A 64.51 64.51 0 0 1  258.05 193.54000000000002 L 193.54 129.03 A 64.51 64.51 0 0 0 258.05 193.54000000000002" fill="#cee4e3"/><rect x="258.0571428571429" y="129.02857142857144" width="64.51428571428572" height="64.51428571428572" fill="#ffffff"/><rect x="645.1428571428572" y="129.02857142857144" width="64.51428571428572" height="64.51428571428572" fill="#ffffff"/><path d="M 677.4 161.29 A 32.26 32.26 0 0 1  709.66 129.03 L 677.4 161.29 A 32.26 32.26 0 0 0 709.66 129.03" fill="#99ac94"/><path d="M 677.4 193.54999999999998 A 32.26 32.26 0 0 1  709.66 161.29 L 677.4 193.54999999999998 A 32.26 32.26 0 0 0 709.66 161.29" fill="#527249"/><path d="M 709.66 193.54000000000002 A 64.51 64.51 0 0 1  774.17 129.03 L 709.66 193.54000000000002 A 64.51 64.51 0 0 0 774.17 129.03" fill="#4b6c42"/><path d="M 451.6 258.05 A 64.51 64.51 0 0 1  516.11 193.54 L 451.6 258.05 A 64.51 64.51 0 0 0 516.11 193.54" fill="#6daeac"/><path d="M 193.54 258.06 A 64.51 64.51 0 0 1  258.05 322.57 L 193.54 258.06 A 64.51 64.51 0 0 0 258.05 322.57" fill="#f7f8f6"/><rect x="258.0571428571429" y="258.0571428571429" width="64.51428571428572" height="64.51428571428572" fill="#ffffff"/><path d="M 258.06 258.06 A 32.26 32.26 0 0 1  290.32 290.32 L 258.06 258.06 A 32.26 32.26 0 0 0 290.32 290.32" fill="#edf0ec"/><path d="M 290.31 290.32 A 32.26 32.26 0 0 1  322.57 258.06 L 290.31 290.32 A 32.26 32.26 0 0 0 322.57 258.06" fill="#c8e1e0"/><path d="M 258.06 290.31 A 32.26 32.26 0 0 1  290.32 322.57 L 258.06 290.31 A 32.26 32.26 0 0 0 290.32 322.57" fill="#bbc8b8"/><path d="M 290.31 322.57 A 32.26 32.26 0 0 1  322.57 290.31 L 290.31 322.57 A 32.26 32.26 0 0 0 322.57 290.31" fill="#f9fcfb"/><rect x="387.0857142857143" y="258.0571428571429" width="64.51428571428572" height="64.51428571428572" fill="#ffffff"/><rect x="451.6" y="258.0571428571429" width="64.51428571428572" height="64.51428571428572" fill="#ffffff"/><path d="M 451.6 290.32 A 32.26 32.26 0 0 1  483.86 258.06 L 451.6 290.32 A 32.26 32.26 0 0 0 483.86 258.06" fill="#5ea6a3"/><path d="M 483.86 322.57 A 32.26 32.26 0 0 1  516.12 290.31 L 483.86 322.57 A 32.26 32.26 0 0 0 516.12 290.31" fill="#879d81"/><rect x="516.1142857142858" y="258.0571428571429" width="64.51428571428572" height="64.51428571428572" fill="#ffffff"/><path d="M 516.11 290.32 A 32.26 32.26 0 0 1  548.37 258.06 L 516.11 290.32 A 32.26 32.26 0 0 0 548.37 258.06" fill="#7fb8b6"/><path d="M 516.11 290.31 A 32.26 32.26 0 0 1  548.37 322.57 L 516.11 290.31 A 32.26 32.26 0 0 0 548.37 322.57" fill="#dfeded"/><rect x="645.1428571428572" y="258.0571428571429" width="64.51428571428572" height="64.51428571428572" fill="#ffffff"/><path d="M 645.14 258.06 A 32.26 32.26 0 0 1  677.4 290.32 L 645.14 258.06 A 32.26 32.26 0 0 0 677.4 290.32" fill="#e3e8e2"/><path d="M 677.4 290.32 A 32.26 32.26 0 0 1  709.66 258.06 L 677.4 290.32 A 32.26 32.26 0 0 0 709.66 258.06" fill="#6c8764"/><path d="M 645.14 322.57 A 32.26 32.26 0 0 1  677.4 290.31 L 645.14 322.57 A 32.26 32.26 0 0 0 677.4 290.31" fill="#f5f7f5"/><rect x="709.657142857143" y="258.0571428571429" width="64.51428571428572" height="64.51428571428572" fill="#ffffff"/><path d="M 709.66 322.57 A 32.26 32.26 0 0 1  741.92 290.31 L 709.66 322.57 A 32.26 32.26 0 0 0 741.92 290.31" fill="#d5e8e7"/><path d="M 193.54 322.57 A 64.51 64.51 0 0 1  258.05 387.08 L 193.54 322.57 A 64.51 64.51 0 0 0 258.05 387.08" fill="#e4f0f0"/><path d="M 322.57 387.08 A 64.51 64.51 0 0 1  387.08 322.57 L 322.57 387.08 A 64.51 64.51 0 0 0 387.08 322.57" fill="#406336"/><rect x="580.6285714285715" y="322.5714285714286" width="64.51428571428572" height="64.51428571428572" fill="#ffffff"/><path d="M 612.89 354.83 A 32.26 32.26 0 0 1  645.15 322.57 L 612.89 354.83 A 32.26 32.26 0 0 0 645.15 322.57" fill="#f6f8f6"/><path d="M 580.63 354.83 A 32.26 32.26 0 0 1  612.89 387.09 L 580.63 354.83 A 32.26 32.26 0 0 0 612.89 387.09" fill="#a0b29c"/><path d="M 64.51 387.09 A 64.51 64.51 0 0 1  129.02 451.59999999999997 L 64.51 387.09 A 64.51 64.51 0 0 0 129.02 451.59999999999997" fill="#dfe5dd"/><path d="M 580.63 451.59999999999997 A 64.51 64.51 0 0 1  645.14 387.09 L 580.63 451.59999999999997 A 64.51 64.51 0 0 0 645.14 387.09" fill="#59a3a0"/><rect x="645.1428571428572" y="387.0857142857143" width="64.51428571428572" height="64.51428571428572" fill="#ffffff"/><path d="M 645.14 387.09 A 32.26 32.26 0 0 1  677.4 419.34999999999997 L 645.14 387.09 A 32.26 32.26 0 0 0 677.4 419.34999999999997" fill="#406336"/><path d="M 709.66 387.09 A 64.51 64.51 0 0 1  774.17 451.59999999999997 L 709.66 387.09 A 64.51 64.51 0 0 0 774.17 451.59999999999997" fill="#c2dddc"/></g></svg>